<svg xmlns="http://www.w3.org/2000/svg">
    <style>:root svg:not(:target) {display: none}</style>

    <svg id="mask" viewBox="0 0 250 250" >
        <mask id="path-1-inside-1_1103_812" fill="white">
            <path fill-rule="evenodd" clip-rule="evenodd"
                  d="M125 0H0V125V250H125H250V125V0H125ZM125 0C194.036 0 250 55.9644 250 125C250 194.036 194.036 250 125 250C55.9644 250 0 194.036 0 125C0 55.9644 55.9644 0 125 0Z"/>
        </mask>
        <path fill-rule="evenodd" clip-rule="evenodd"
              d="M125 0H0V125V250H125H250V125V0H125ZM125 0C194.036 0 250 55.9644 250 125C250 194.036 194.036 250 125 250C55.9644 250 0 194.036 0 125C0 55.9644 55.9644 0 125 0Z"
              fill="currentColor"/>
        <path d="M0 0V-1H-1V0H0ZM0 250H-1V251H0V250ZM250 250V251H251V250H250ZM250 0H251V-1H250V0ZM0 1H125V-1H0V1ZM1 125V0H-1V125H1ZM1 250V125H-1V250H1ZM125 249H0V251H125V249ZM250 249H125V251H250V249ZM249 125V250H251V125H249ZM249 0V125H251V0H249ZM125 1H250V-1H125V1ZM125 1C193.483 1 249 56.5167 249 125H251C251 55.4121 194.588 -1 125 -1V1ZM249 125C249 193.483 193.483 249 125 249V251C194.588 251 251 194.588 251 125H249ZM125 249C56.5167 249 1 193.483 1 125H-1C-1 194.588 55.4121 251 125 251V249ZM1 125C1 56.5167 56.5167 1 125 1V-1C55.4121 -1 -1 55.4121 -1 125H1Z"
              fill="currentColor" mask="url(#path-1-inside-1_1103_812)"/>
    </svg>



</svg>